# xmcd
#
# Track frame offsets:
#	187
#	12727
#	29250
#	43102
#	59625
#	73475
#	88247
#	103060
#	115700
#	136167
#	152675
#	168647
#	180872
#	196242
#	214485
#	232405
#	245725
#	260115
#	279957
#	291657
#
# Disc length: 4150
#
# Revision: 1
# Processed by: cddbd v1.5.1PL0 Copyright (c) Steve Scherf et al.
# Submitted via: VisiTrax 2.9.5.180 - For more info visit www.synapsa.com
# Normalized: r0:DSETVAR1
#
DISCID=44103414
DTITLE=Various Artist - Music First
DYEAR=1994
DGENRE=
TTITLE0=Rick Trevino - Honky tonk crowd
TTITLE1=Joy Lynn White - Bad loser
TTITLE2=Doug Stone - Addicted to a dollar
TTITLE3=Joe Diffie - In my own backyard
TTITLE4=Collin Raye - That's my story
TTITLE5=Patty Loveless - You will
TTITLE6=Rick Trevino - She can't say I didn't cry
TTITLE7=Ken Mellons - Lookin' in the same direction
TTITLE8=Joe Diffe - John Deere Green
TTITLE9=Joy Lynn White - Too gone to care
TTITLE10=Gibson/Miller Band - Stone cold country
TTITLE11=Ken Mellons - Jukebox junkie
TTITLE12=Doug Stone - More love
TTITLE13=Mary Chapin Carpenter - He thinks he'll keep her
TTITLE14=Collin Raye - Little rock
TTITLE15=Bobbie Cryner - You could steal me
TTITLE16=Ricky Van Shelton - Where was I
TTITLE17=Patty Loveless - How can I help you say goodbye
TTITLE18=Dolly Parton -Tammy Wynette- Loretta Lynn - Sittin' one the front porch swing
TTITLE19=Mary Chapin Carpenter - The hard way
EXTD=
EXTT0=
EXTT1=
EXTT2=
EXTT3=
EXTT4=
EXTT5=
EXTT6=
EXTT7=
EXTT8=
EXTT9=
EXTT10=
EXTT11=
EXTT12=
EXTT13=
EXTT14=
EXTT15=
EXTT16=
EXTT17=
EXTT18=
EXTT19=
PLAYORDER=
